<svg t="1719309902216" class="icon" viewBox="0 0 1024 1024" version="1.1" xmlns="http://www.w3.org/2000/svg" p-id="915"><path d="M384 256a256 256 0 0 0-36.48 509.44 42.666667 42.666667 0 1 1-12.074667 84.48A341.418667 341.418667 0 0 1 384 170.666667h256a341.333333 341.333333 0 1 1 0 682.666666h-85.333333a42.666667 42.666667 0 1 1 0-85.333333h85.333333a256 256 0 0 0 0-512H384z" p-id="916"></path><path d="M492.074667 793.6a21.333333 21.333333 0 0 0 0 34.133333l113.792 85.333334a21.333333 21.333333 0 0 0 34.133333-17.066667v-170.666667a21.333333 21.333333 0 0 0-34.133333-17.066666l-113.792 85.333333zM480.426667 426.88l-54.442667 39.424V399.658667l54.442667-40.832h61.44V682.666667h-61.44v-255.786667z" p-id="917"></path></svg>