<svg t="1719315652786" class="icon" viewBox="0 0 1024 1024" version="1.1" xmlns="http://www.w3.org/2000/svg" p-id="752"><path d="M384 256a256 256 0 0 0-109.653333 487.381333 42.666667 42.666667 0 0 1-36.693334 77.098667A341.333333 341.333333 0 0 1 384 170.666667h128a42.666667 42.666667 0 1 1 0 85.333333H384z m345.472-32.256a42.666667 42.666667 0 0 1 56.832-20.224A341.333333 341.333333 0 0 1 640 853.333333h-85.290667a42.666667 42.666667 0 1 1 0-85.333333h85.333334a256 256 0 0 0 109.653333-487.381333 42.666667 42.666667 0 0 1-20.181333-56.874667z" p-id="753"></path><path d="M406.741333 793.6a21.333333 21.333333 0 0 0 0 34.133333l113.792 85.333334a21.333333 21.333333 0 0 0 34.133334-17.066667v-170.666667a21.333333 21.333333 0 0 0-34.133334-17.066666l-113.792 85.333333zM617.258667 196.266667a21.333333 21.333333 0 0 1 0 34.133333l-113.792 85.333333A21.333333 21.333333 0 0 1 469.333333 298.666667V128a21.333333 21.333333 0 0 1 34.133334-17.066667l113.792 85.333334z" p-id="754"></path></svg>